<?xml version="1.0" encoding="UTF-8"?>
<svg width="64" height="64" viewBox="0 0 64 64" xmlns="http://www.w3.org/2000/svg">
  <!-- Background circle -->
  <circle cx="32" cy="32" r="30" fill="#2563eb" stroke="#1d4ed8" stroke-width="2"/>
  
  <!-- Cloud shape -->
  <path d="M20 35c-3.3 0-6-2.7-6-6s2.7-6 6-6c0.8-3.3 3.8-6 7.5-6 2.8 0 5.2 1.5 6.5 3.8 1.2-0.5 2.5-0.8 3.9-0.8 5.5 0 10 4.5 10 10 0 1.1-0.2 2.1-0.5 3.1 2.3 1.1 3.9 3.5 3.9 6.3 0 3.9-3.1 7-7 7H20z" fill="white"/>
  
  <!-- Lightning bolt -->
  <path d="M30 25h4l-2 6h3l-6 8 2-6h-3l2-8z" fill="#2563eb"/>
</svg> 